<svg width="119" height="112" viewBox="0 0 119 112" fill="none" xmlns="http://www.w3.org/2000/svg">
<path d="M36.2866 77.6203L17.5149 3.07273L0.383148 3.03906M62.5494 93.2934L112.264 81.0445M77.562 57.2099L70.9853 30.6278M61.969 45.7454L70.9819 30.6278L86.0114 39.823M34.5825 19.0388L99.1614 3.12997L115.105 67.5666L57.9163 81.6573C53.8502 82.6573 49.7031 80.159 48.7009 76.1052L34.5825 19.0388ZM39.1683 87.5528C45.0296 86.1084 50.9516 89.6773 52.3992 95.5257C53.8468 101.374 50.27 107.283 44.4087 108.728C38.5474 110.172 32.6254 106.603 31.1777 100.755C29.7301 94.9062 33.3104 88.9972 39.1683 87.5528Z" stroke="#CD1338" stroke-width="5" stroke-miterlimit="22.9256"/>
</svg>
