<svg width="114" height="93" viewBox="0 0 114 93" fill="none" xmlns="http://www.w3.org/2000/svg">
<g clip-path="url(#clip0_1_8)">
<path d="M100.006 59.0233L95.202 56.3399L95.199 56.3446C95.134 56.3087 95.073 56.27 95.013 56.2293L90.257 53.5729L91.432 51.5953L90.248 53.5792C89.479 53.1499 89.054 52.3664 89.064 51.5646V46.0645V40.5337C89.064 39.6272 89.608 38.8437 90.398 38.4723L95.199 35.7907L100.15 33.0252L101.333 35.0028L100.15 33.0189C100.961 32.5658 101.934 32.6299 102.661 33.1056L107.468 35.7907L112.416 38.5545L112.419 38.5498C113.188 38.9791 113.613 39.7627 113.603 40.5645V46.0645V51.5953C113.603 52.5212 113.035 53.3188 112.218 53.68L107.466 56.3344L107.468 56.3383L107.465 56.3399L107.468 56.3446C107.421 56.371 107.373 56.3955 107.325 56.4184L102.517 59.1037L101.333 57.1261L102.517 59.11C101.706 59.5632 100.733 59.499 100.006 59.0233ZM96.383 54.3607L97.567 52.3831L101.333 54.4873L104.963 52.4598C105.008 52.4309 105.053 52.403 105.1 52.3768L106.284 54.3607L105.11 52.3831L108.867 50.2842V46.0645V41.85L105.1 39.7458L101.333 37.6417L97.567 39.7458L93.8 41.85V46.0645V50.2842L97.37 52.2787C97.437 52.3082 97.502 52.3407 97.567 52.3768L96.383 54.3607Z" fill="#CD1338"/>
<path d="M81.53 54.4874L85.297 52.3833L86.481 54.3609L85.297 52.3769C85.362 52.3409 85.427 52.3085 85.493 52.2789L89.064 50.2844V46.0646V41.8501L85.297 39.746L81.53 37.6419L77.7635 39.746L73.9966 41.8502V46.0646V50.2844L77.7542 52.3833L76.5796 54.3609L77.7634 52.3769C77.8105 52.4032 77.8562 52.4311 77.9008 52.46L81.53 54.4874ZM87.662 56.3401L82.858 59.0235C82.131 59.4992 81.158 59.5633 80.3464 59.1102L81.53 57.1263L80.3464 59.1039L75.5391 56.4186C75.4908 56.3957 75.443 56.3712 75.3957 56.3448L75.3985 56.3401L75.3957 56.3384L75.398 56.3346L70.6458 53.6801C69.8287 53.3189 69.2609 52.5214 69.2609 51.5955V46.0646V40.5646C69.2506 39.7629 69.6761 38.9793 70.4448 38.5499L70.4476 38.5547L75.3957 35.7908L80.2024 33.1058C80.9297 32.6301 81.903 32.566 82.714 33.0191L81.53 35.003L82.714 33.0254L87.665 35.7908L92.466 38.4725C93.255 38.8439 93.8 39.6274 93.8 40.5339V46.0646V51.5647C93.81 52.3665 93.384 53.1501 92.616 53.5794L91.432 51.5955L92.607 53.5731L87.851 56.2295C87.791 56.2702 87.729 56.3088 87.665 56.3448L87.662 56.3401Z" fill="#CD1338"/>
<path d="M60.6932 21.8798L65.494 19.1982L70.4447 16.4328L71.6286 18.4103L70.4447 16.4264C71.256 15.9733 72.2293 16.0375 72.9565 16.5132L77.7634 19.1982L82.711 21.962L82.714 21.9573C83.483 22.3866 83.908 23.1703 83.898 23.972V29.472V35.0029C83.898 35.9287 83.33 36.7263 82.513 37.0875L77.761 39.7419L77.7634 39.7458L77.7605 39.7474L77.7633 39.7521C77.716 39.7785 77.6681 39.8031 77.6199 39.826L72.8125 42.5112L71.6286 40.5337L72.8125 42.5176C72.0013 42.9707 71.0281 42.9065 70.3008 42.4308L65.4968 39.7474L65.494 39.7521C65.4296 39.7162 65.3678 39.6776 65.3082 39.6368L60.5524 36.9804L61.7271 35.0029L60.5433 36.9868C59.7745 36.5574 59.3489 35.7739 59.3593 34.9722V29.472V23.9412C59.3593 23.0347 59.9036 22.2513 60.6932 21.8798ZM67.8618 23.1534L64.0949 25.2575V29.472V33.6917L67.6656 35.6862C67.7319 35.7157 67.7974 35.7483 67.8618 35.7843L66.6779 37.7682L67.8618 35.7906L71.6286 37.8948L75.2583 35.8673C75.3027 35.8384 75.3485 35.8106 75.3956 35.7843L76.5795 37.7682L75.4048 35.7906L79.1625 33.6917V29.472V25.2575L75.3956 23.1534L71.6286 21.0492L67.8618 23.1534Z" fill="#CD1338"/>
<path d="M73.9964 17.0994L77.7539 19.1983L76.5793 21.1759L77.7632 19.1919C77.8106 19.2184 77.8564 19.2463 77.9012 19.2754L81.53 21.3024L85.297 19.1983L86.481 21.1759L85.297 19.1919C85.361 19.1559 85.427 19.1234 85.493 19.0939L89.064 17.0994V12.8797V8.6651L85.297 6.561L81.53 4.4569L77.7632 6.561L73.9964 8.6651V12.8797V17.0994ZM75.3977 23.1496L70.6455 20.4951C69.8285 20.1338 69.2607 19.3364 69.2607 18.4105V12.8796V7.3796C69.2504 6.5779 69.6759 5.7943 70.4446 5.3649L70.4474 5.3697L75.3954 2.6058L80.2022 -0.0791994C80.9294 -0.554899 81.903 -0.618998 82.714 -0.165898L81.53 1.818L82.714 -0.159598L87.665 2.6058L92.466 5.2875C93.255 5.6589 93.799 6.4424 93.799 7.3489V12.8796V18.3798C93.81 19.1815 93.384 19.9651 92.615 20.3944L91.432 18.4105L92.606 20.3881L87.851 23.0444C87.791 23.0852 87.729 23.1238 87.665 23.1598L87.662 23.155L82.858 25.8385C82.131 26.3141 81.157 26.3783 80.3462 25.9252L81.53 23.9413L80.3462 25.9189L75.5394 23.2338C75.4909 23.2108 75.4428 23.1862 75.3954 23.1598L75.3982 23.155L75.3954 23.1534L75.3977 23.1496Z" fill="#CD1338"/>
<path d="M59.3591 25.2576L55.5923 23.1535L51.8254 21.0493L48.0585 23.1535L44.2917 25.2576V29.4721V33.6918L48.0492 35.7908L46.8746 37.7683L48.0585 35.7844C48.1059 35.8109 48.1517 35.8388 48.1965 35.8679L51.8254 37.8949L55.5923 35.7908L56.7762 37.7683L55.5923 35.7844C55.6567 35.7484 55.7222 35.7159 55.7885 35.6863L59.3591 33.6918V29.4721V25.2576ZM57.9601 19.1983L62.7609 21.88C63.5505 22.2514 64.0948 23.0349 64.0948 23.9413V29.4721V34.9722C64.1051 35.7739 63.6796 36.5576 62.9109 36.9869L61.7269 35.003L62.9016 36.9806L58.1459 39.6369C58.0864 39.6777 58.0245 39.7162 57.9601 39.7523L57.9573 39.7475L53.1532 42.4309C52.426 42.9066 51.4527 42.9708 50.6415 42.5177L51.8254 40.5338L50.6415 42.5113L45.8347 39.8263C45.7862 39.8033 45.7381 39.7787 45.6907 39.7523L45.6935 39.7475L45.6907 39.7459L45.693 39.742L40.9408 37.0876C40.1238 36.7263 39.556 35.9288 39.556 35.003V29.4721V23.9721C39.5457 23.1704 39.9712 22.3868 40.7399 21.9574L40.7427 21.9621L45.6906 19.1983L50.4975 16.5133C51.2247 16.0376 52.198 15.9734 53.0093 16.4265L51.8254 18.4105L53.0093 16.4329L57.9601 19.1983Z" fill="#CD1338"/>
<path d="M52.8082 53.6801L48.056 56.3345L48.0583 56.3384L48.0554 56.34L48.0582 56.3447C48.011 56.3711 47.9632 56.3956 47.9149 56.4185L43.1076 59.1038L41.9237 57.1262L43.1076 59.1101C42.2963 59.5633 41.323 59.4991 40.5958 59.0234L35.7917 56.34L35.7889 56.3447C35.7245 56.3088 35.6628 56.2701 35.6031 56.2294L30.8474 53.573L32.022 51.5954L30.8382 53.5794C30.0695 53.15 29.6439 52.3665 29.6542 51.5648V46.0646V40.5338C29.6542 39.6273 30.1986 38.8439 30.9882 38.4724L35.7889 35.7908L40.7398 33.0254L41.9237 35.0029L40.7398 33.019C41.551 32.5659 42.5242 32.6301 43.2515 33.1058L48.0583 35.7908L53.0064 38.5546L53.0091 38.5499C53.7779 38.9792 54.2034 39.7629 54.1931 40.5646V46.0646V51.5955C54.1931 52.5213 53.6253 53.3189 52.8082 53.6801ZM46.8744 54.3608L45.6998 52.3832L49.4574 50.2843V46.0646V41.8501L45.6905 39.7459L41.9237 37.6418L38.1568 39.7459L34.3899 41.8501V46.0646V50.2843L37.9606 52.2788C38.0268 52.3083 38.0924 52.3408 38.1568 52.3769L36.9729 54.3608L38.1568 52.3832L41.9237 54.4874L45.5532 52.4599C45.5978 52.4311 45.6435 52.4032 45.6906 52.3769L46.8744 54.3608Z" fill="#CD1338"/>
<path d="M14.5867 50.2846L18.3443 52.3835L17.1697 54.3611L18.3535 52.3772C18.4006 52.4035 18.4464 52.4313 18.4909 52.4602L22.1205 54.4877L25.8873 52.3835L27.0712 54.3611L25.8873 52.3772C25.9517 52.3412 26.0173 52.3086 26.0835 52.2791L29.6542 50.2846V46.0649V41.8504L25.8873 39.7463L22.1205 37.6421L18.3536 39.7463L14.5867 41.8504V46.0649V50.2846ZM15.9881 56.3348L11.2358 53.6804C10.4188 53.3192 9.85101 52.5216 9.85101 51.5958V46.0649V40.5649C9.84071 39.7632 10.2662 38.9795 11.0349 38.5502L11.0377 38.5549L15.9857 35.7911L20.7926 33.1061C21.5198 32.6304 22.4931 32.5662 23.3044 33.0193L22.1205 35.0032L23.3044 33.0257L28.2551 35.7911L33.0559 38.4727C33.8455 38.8442 34.3899 39.6276 34.3899 40.5341V46.0649V51.5651C34.4002 52.3668 33.9746 53.1503 33.2059 53.5797L32.022 51.5958L33.1967 53.5733L28.4409 56.2297C28.3813 56.2704 28.3195 56.3091 28.2551 56.345L28.2523 56.3403L23.4483 59.0237C22.7211 59.4994 21.7478 59.5636 20.9366 59.1105L22.1205 57.1265L20.9366 59.1041L16.1292 56.4188C16.081 56.396 16.0331 56.3714 15.9858 56.345L15.9886 56.3403L15.9857 56.3387L15.9881 56.3348Z" fill="#CD1338"/>
<path d="M1.2834 21.8798L6.0841 19.1982L11.0349 16.4328L12.2188 18.4103L11.0349 16.4264C11.8462 15.9733 12.8194 16.0375 13.5466 16.5132L18.3535 19.1982L23.3016 21.962L23.3044 21.9573C24.1292 22.418 24.5589 23.2864 24.479 24.1477L24.4789 29.472L24.479 35.0029H24.4882C24.4882 35.9285 23.9208 36.7257 23.1042 37.0871L18.3512 39.7419L18.3535 39.7458L18.3506 39.7474L18.3534 39.7521C18.3062 39.7785 18.2583 39.8031 18.21 39.826L13.4027 42.5112L12.2188 40.5337L13.4027 42.5176C12.5914 42.9707 11.6182 42.9065 10.8909 42.4308L6.0869 39.7474L6.0841 39.7521C6.0197 39.7162 5.9579 39.6776 5.8983 39.6368L1.1426 36.9805L2.3172 35.0029L1.1334 36.9868C0.364702 36.5574 -0.0608986 35.7739 -0.0505986 34.9722V29.472V23.9412C-0.0505986 23.0348 0.493801 22.2513 1.2834 21.8798ZM8.452 23.1534L4.6851 25.2575V29.472V33.6917L8.2558 35.6862C8.322 35.7157 8.3876 35.7483 8.452 35.7843L7.2681 37.7682L8.452 35.7906L12.2188 37.8948L15.8484 35.8673C15.8929 35.8384 15.9387 35.8106 15.9858 35.7843L17.1696 37.7682L15.995 35.7906L19.7619 33.6865L19.7618 29.472L19.7619 25.2627L15.9857 23.1533L12.2188 21.0492L8.452 23.1534Z" fill="#CD1338"/>
<path d="M4.6851 66.8713L8.452 68.9755L12.2188 71.0796L15.9857 68.9755L19.7619 66.8662L19.7618 62.6569L19.7619 58.4423L15.995 56.3382L17.1696 54.3606L15.9858 56.3446C15.9387 56.3183 15.8929 56.2904 15.8484 56.2615L12.2188 54.2341L8.452 56.3382L7.2681 54.3606L8.452 56.3446C8.3876 56.3806 8.322 56.4131 8.2558 56.4426L4.6851 58.4371V62.6568V66.8713ZM6.0841 72.931L1.2834 70.249C0.493801 69.8776 -0.0505986 69.0941 -0.0505986 68.1876V62.6569V57.1567C-0.0608986 56.355 0.364702 55.5714 1.1334 55.1421L2.3172 57.126L1.1426 55.1484L5.8983 52.4921C5.9579 52.4513 6.0197 52.4127 6.0841 52.3767L6.0869 52.3815L10.8909 49.698C11.6182 49.2224 12.5914 49.1582 13.4027 49.6113L12.2188 51.5952L13.4027 49.6176L18.21 52.3029C18.2583 52.3257 18.3062 52.3504 18.3534 52.3767L18.3506 52.3815L18.3535 52.3831L18.3512 52.387L23.1042 55.0418C23.9208 55.4032 24.4882 56.2004 24.4882 57.126H24.479L24.4789 62.6569L24.479 67.9812C24.5589 68.8424 24.1292 69.7109 23.3044 70.1716L23.3016 70.1669L18.3535 72.931L13.5466 75.616C12.8194 76.091 11.8461 76.156 11.0349 75.702L12.2188 73.719L11.0349 75.696L6.0841 72.931Z" fill="#CD1338"/>
<path d="M11.2358 71.634L15.9881 68.9796L15.9857 68.9757L15.9886 68.9741L15.9858 68.9694C16.0331 68.943 16.081 68.9184 16.1292 68.8956L20.9366 66.2103L22.1205 68.1879L20.9366 66.2039C21.7478 65.7508 22.721 65.815 23.4483 66.2907L28.2523 68.9741L28.2551 68.9694C28.3195 69.0053 28.3813 69.044 28.4409 69.0847L33.1967 71.7411L32.022 73.719L33.2059 71.7347C33.9746 72.164 34.4002 72.948 34.3899 73.749V79.25V84.78C34.3899 85.687 33.8455 86.47 33.0559 86.842L28.2551 89.523L23.3044 92.289L22.1205 90.311L23.3044 92.295C22.4931 92.748 21.5198 92.684 20.7926 92.208L15.9857 89.523L11.0377 86.759L11.0349 86.764C10.2662 86.335 9.84071 85.551 9.85101 84.75V79.25V73.719C9.85101 72.793 10.4188 71.9952 11.2358 71.634ZM17.1697 70.9533L18.3443 72.931L14.5867 75.03V79.25V83.464L18.3536 85.568L22.1205 87.672L25.8873 85.568L29.6542 83.464V79.25V75.03L26.0835 73.035C26.0173 73.006 25.9517 72.973 25.8873 72.937L27.0712 70.9533L25.8873 72.931L22.1205 70.8267L18.4909 72.854C18.4464 72.883 18.4006 72.911 18.3535 72.937L17.1697 70.9533Z" fill="#CD1338"/>
</g>
<defs>
<clipPath id="clip0_1_8">
<rect width="114" height="93" fill="white"/>
</clipPath>
</defs>
</svg>
