<svg width="98" height="98" viewBox="0 0 98 98" fill="none" xmlns="http://www.w3.org/2000/svg">
<g clip-path="url(#clip0_1_2)">
<mask id="mask0_1_2" style="mask-type:luminance" maskUnits="userSpaceOnUse" x="-15" y="-15" width="138" height="140">
<path d="M123 -15H-15V125H123V-15Z" fill="white"/>
</mask>
<g mask="url(#mask0_1_2)">
<path d="M93.054 39.4599H71.8762V92.798H93.054V39.4599ZM13.3166 66.6084C12.0581 66.6084 10.9109 67.1274 10.0787 67.9624C9.24651 68.7974 8.72921 69.9484 8.72921 71.2112C8.72921 72.475 9.24651 73.6249 10.0787 74.4599C10.9109 75.2949 12.0581 75.8139 13.3166 75.8139H24.2489C26.646 77.9247 25.185 80.6023 23.1029 80.6023H20.3769C18.2081 80.611 16.8338 81.775 16.2451 83.2615C16.0026 83.875 15.8804 84.5634 15.8804 85.272C15.8804 85.98 16.0016 86.67 16.2451 87.282C16.8359 88.775 18.219 89.941 20.4028 89.941H62.6841L67.1048 88.352V48.1409L50.4066 24.4779C50.0419 24.0577 49.82 23.5083 49.82 22.9067V7.76939C49.82 7.11899 49.2898 6.37199 48.8417 5.94309C48.1751 5.30569 47.2845 4.96259 46.3635 5.08969C43.6094 5.47299 41.0738 7.07019 39.2243 9.39379C37.3716 11.7229 36.2201 14.7675 36.2201 18.0618V27.6148C36.2201 30.047 36.6249 32.5737 38.1822 34.5205C39.0133 35.4771 39.0999 37.1015 37.5296 38.487H9.89691C8.61991 38.487 7.45661 39.0136 6.61251 39.8606C5.76841 40.7075 5.24351 41.8747 5.24351 43.156C5.24351 44.4372 5.76841 45.6045 6.61251 46.4514C7.45661 47.2984 8.61991 47.825 9.89691 47.825H28.7822C31.1793 49.9347 29.7194 52.6134 27.6362 52.6134H9.89691C8.63941 52.608 7.48361 53.0727 6.59301 53.9674C5.76081 54.8024 5.24351 55.9534 5.24351 57.2162C5.24351 58.48 5.76081 59.6299 6.59301 60.466C7.42521 61.301 8.57231 61.82 9.83091 61.82H25.2283C27.6254 63.9297 26.1644 66.6084 24.0823 66.6084H13.3166ZM12.268 80.5426C10.109 80.2983 8.16651 79.3124 6.70441 77.8455C5.00971 76.1451 3.95681 73.7965 3.95681 71.2112C3.95681 69.1438 4.62991 67.2273 5.76621 65.6724C4.81711 65.2099 3.95571 64.5921 3.21761 63.8505C1.52291 62.149 0.46991 59.8015 0.46991 57.2162C0.46991 54.5255 1.61921 51.9847 3.62021 50.2007C1.61921 48.4037 0.46991 45.8553 0.46991 43.156C0.46991 40.5522 1.53051 38.1873 3.23711 36.475C4.94371 34.7627 7.30181 33.6986 9.89581 33.6986H32.3762C31.6987 31.7506 31.4466 29.6713 31.4466 27.6148V18.0618C31.4466 13.648 32.9985 9.55779 35.4951 6.41979C38.088 3.16129 41.7123 0.913589 45.7099 0.357689C48.1026 0.0243892 50.3698 0.810488 52.1219 2.48259C53.5049 3.80409 54.5914 5.81389 54.5914 7.76939V22.1651L67.1037 39.8964V34.6726H97.825V97.587H67.1048V93.417L63.8712 94.58C63.6061 94.676 63.3355 94.72 63.0693 94.72L20.4028 94.73C15.955 94.73 13.0926 92.235 11.8275 89.04C11.3481 87.831 11.109 86.541 11.109 85.271C11.109 84.002 11.3481 82.7121 11.8275 81.5025C11.9574 81.1746 12.1046 80.8542 12.268 80.5426Z" fill="#CD1338"/>
</g>
</g>
<defs>
<clipPath id="clip0_1_2">
<rect width="98" height="98" fill="white"/>
</clipPath>
</defs>
</svg>
